<svg width="64" height="64" xmlns="http://www.w3.org/2000/svg"><path d="M57.533 8C52.1 8 42.876 12.74 36.459 21.526c-2.187 3.026-3.5 5.615-4.448 8.021-.948-2.406-2.26-4.995-4.448-8.02C21.146 12.74 11.923 8 6.49 8c-2.26 0-3.61.839-4.302 1.495C.656 10.953 0 13.287 0 16.094v.036c0 6.563 3.682 15.568 8.64 21.365 1.277 1.495 2.516 2.662 3.829 3.61-2.589 5.542-1.385 11.703 2.77 13.854.876.474 1.897.693 2.954.693 3.573 0 7.766-2.661 10.427-6.563 1.532-2.114 2.589-4.01 3.391-5.797.802 1.787 1.86 3.646 3.39 5.761 2.699 3.938 6.892 6.6 10.428 6.6 1.057 0 2.078-.22 2.953-.694 4.157-2.114 5.396-8.276 2.771-13.854 1.313-.948 2.552-2.151 3.828-3.61 7.073-8.24 11.522-23.078 6.417-27.964C61.106 8.84 59.793 8 57.533 8z" fill="#000" fill-rule="nonzero"/></svg>
