<svg width="36px" height="27px" viewBox="0 0 36 27" version="1.1" xmlns="http://www.w3.org/2000/svg" xmlns:xlink="http://www.w3.org/1999/xlink">
    <defs>
        <path d="M26.0953199,26.6873167 C26.5752101,26.6499703 27.0264944,26.5282497 27.4347454,26.3183463 C29.7759157,25.122882 30.461779,21.667421 28.999391,18.5552079 C29.7320609,18.0249446 30.4337373,17.3591111 31.1465882,16.5241837 C35.1314691,11.8947641 37.6305587,3.57353156 34.7641854,0.838300872 C34.3604263,0.460685967 33.6189011,0 32.3456368,0 C29.2888747,0 24.0977766,2.65785231 20.4987334,7.58033985 C19.262577,9.27465218 18.5288529,10.7300825 17.9933186,12.0781951 C17.4598927,10.7298717 16.7251144,9.27444134 15.487693,7.58033985 C11.8867522,2.65785231 6.69649749,0 3.64142212,0 C2.36647107,0 1.62072908,0.460685967 1.22245183,0.838300872 C0.454582614,1.57109235 0.0720310931,2.70481882 0,4.06108016 L1.96182972e-10,5.05814668 C0.176321386,8.6813899 2.17723681,13.4283646 4.83941648,16.5243945 C5.55458664,17.3593219 6.25689555,18.0255772 6.986192,18.5554187 C5.52549068,21.6678426 6.20966733,25.1230928 8.55252429,26.3183463 C8.96018717,26.528031 9.40917694,26.6497203 9.88950809,26.6873167 L10.5426182,26.6873167 C12.4704394,26.5390422 14.6633126,25.0997594 16.0786782,23.0264973 C16.9327921,21.8306113 17.5292592,20.7700848 17.9933186,19.7751296 C18.450842,20.7669222 19.0456223,21.8196476 19.8948869,23.0049916 C21.3275065,25.0994192 23.5157011,26.540162 25.445112,26.6873167 L26.0953199,26.6873167 Z" id="path-1"></path>
    </defs>
    <g id="Page-1" stroke="none" stroke-width="1" fill="none" fill-rule="evenodd">
        <mask id="mask-2" fill="white">
            <use xlink:href="#path-1"></use>
        </mask>
        <g id="butterfly"></g>
    </g>
</svg>